HIERARCHY
ROOT Hips
{
  OFFSET 24.6381 83.5097 3.48373
  CHANNELS 6 Xposition Yposition Zposition Zrotation Xrotation Yrotation
  JOINT Spine
  {
    OFFSET 0 10.1816 0.1315
    CHANNELS 6 Xposition Yposition Zposition Zrotation Xrotation Yrotation
    JOINT Spine1
    {
      OFFSET 0 10.0835 -1.0008
      CHANNELS 6 Xposition Yposition Zposition Zrotation Xrotation Yrotation
      JOINT Spine2
      {
        OFFSET 0 9.1 -1.3734
        CHANNELS 6 Xposition Yposition Zposition Zrotation Xrotation Yrotation
        JOINT Neck
        {
          OFFSET 0 16.6717 -2.5162
          CHANNELS 6 Xposition Yposition Zposition Zrotation Xrotation Yrotation
          JOINT Head
          {
            OFFSET 0 9.6179 1.685
            CHANNELS 6 Xposition Yposition Zposition Zrotation Xrotation Yrotation
            JOINT HeadTop_End
            {
              OFFSET 0 17.8152 2.585
              CHANNELS 6 Xposition Yposition Zposition Zrotation Xrotation Yrotation
              End Site
              {
                OFFSET 0 0 0
              }
            }
            JOINT LeftEye
            {
              OFFSET 3.0676 6.4095 9.2836
              CHANNELS 6 Xposition Yposition Zposition Zrotation Xrotation Yrotation
              End Site
              {
                OFFSET 0 0 0
              }
            }
            JOINT RightEye
            {
              OFFSET -3.0676 6.4095 9.2835
              CHANNELS 6 Xposition Yposition Zposition Zrotation Xrotation Yrotation
              End Site
              {
                OFFSET 0 0 0
              }
            }
          }
        }
        JOINT LeftShoulder
        {
          OFFSET 4.5704 10.946 -2.628
          CHANNELS 6 Xposition Yposition Zposition Zrotation Xrotation Yrotation
          JOINT LeftArm
          {
            OFFSET 10.5924 -0.5246 -2.2321
            CHANNELS 6 Xposition Yposition Zposition Zrotation Xrotation Yrotation
            JOINT LeftForeArm
            {
              OFFSET 27.8415 -0.0001 0
              CHANNELS 6 Xposition Yposition Zposition Zrotation Xrotation Yrotation
              JOINT LeftHand
              {
                OFFSET 28.3288 0 0
                CHANNELS 6 Xposition Yposition Zposition Zrotation Xrotation Yrotation
                JOINT LeftHandThumb1
                {
                  OFFSET 2.4661 -1.575 2.6824
                  CHANNELS 6 Xposition Yposition Zposition Zrotation Xrotation Yrotation
                  JOINT LeftHandThumb2
                  {
                    OFFSET 3.2298 -1.8647 1.8647
                    CHANNELS 6 Xposition Yposition Zposition Zrotation Xrotation Yrotation
                    JOINT LeftHandThumb3
                    {
                      OFFSET 2.6526 -1.5315 1.5315
                      CHANNELS 6 Xposition Yposition Zposition Zrotation Xrotation Yrotation
                      End Site
                      {
                        OFFSET 1.9546 -1.1285 1.1285
                      }
                    }
                  }
                }
                JOINT LeftHandIndex1
                {
                  OFFSET 9.1093 -0.5171 2.2601
                  CHANNELS 6 Xposition Yposition Zposition Zrotation Xrotation Yrotation
                  JOINT LeftHandIndex2
                  {
                    OFFSET 3.6764 0 0
                    CHANNELS 6 Xposition Yposition Zposition Zrotation Xrotation Yrotation
                    JOINT LeftHandIndex3
                    {
                      OFFSET 2.8831 0 0
                      CHANNELS 6 Xposition Yposition Zposition Zrotation Xrotation Yrotation
                      End Site
                      {
                        OFFSET 2.3927 0 0
                      }
                    }
                  }
                }
                JOINT LeftHandMiddle1
                {
                  OFFSET 9.5334 0 0
                  CHANNELS 6 Xposition Yposition Zposition Zrotation Xrotation Yrotation
                  JOINT LeftHandMiddle2
                  {
                    OFFSET 3.6982 0 0
                    CHANNELS 6 Xposition Yposition Zposition Zrotation Xrotation Yrotation
                    JOINT LeftHandMiddle3
                    {
                      OFFSET 2.9509 0 0
                      CHANNELS 6 Xposition Yposition Zposition Zrotation Xrotation Yrotation
                      End Site
                      {
                        OFFSET 2.8339 0 0
                      }
                    }
                  }
                }
                JOINT LeftHandRing1
                {
                  OFFSET 9.1045 -0.0439 -1.8651
                  CHANNELS 6 Xposition Yposition Zposition Zrotation Xrotation Yrotation
                  JOINT LeftHandRing2
                  {
                    OFFSET 3.154 0 0
                    CHANNELS 6 Xposition Yposition Zposition Zrotation Xrotation Yrotation
                    JOINT LeftHandRing3
                    {
                      OFFSET 2.9377 0 0
                      CHANNELS 6 Xposition Yposition Zposition Zrotation Xrotation Yrotation
                      End Site
                      {
                        OFFSET 2.6475 0 0
                      }
                    }
                  }
                }
                JOINT LeftHandPinky1
                {
                  OFFSET 8.0778 -0.4887 -3.8061
                  CHANNELS 6 Xposition Yposition Zposition Zrotation Xrotation Yrotation
                  JOINT LeftHandPinky2
                  {
                    OFFSET 3.6 0 0
                    CHANNELS 6 Xposition Yposition Zposition Zrotation Xrotation Yrotation
                    JOINT LeftHandPinky3
                    {
                      OFFSET 2.1142 0 0
                      CHANNELS 6 Xposition Yposition Zposition Zrotation Xrotation Yrotation
                      End Site
                      {
                        OFFSET 1.9757 0 0
                      }
                    }
                  }
                }
              }
            }
          }
        }
        JOINT RightShoulder
        {
          OFFSET -4.57 10.9462 -2.628
          CHANNELS 6 Xposition Yposition Zposition Zrotation Xrotation Yrotation
          JOINT RightArm
          {
            OFFSET -10.5928 -0.5248 -2.2321
            CHANNELS 6 Xposition Yposition Zposition Zrotation Xrotation Yrotation
            JOINT RightForeArm
            {
              OFFSET -27.8415 0 0
              CHANNELS 6 Xposition Yposition Zposition Zrotation Xrotation Yrotation
              JOINT RightHand
              {
                OFFSET -28.3288 0 0.0001
                CHANNELS 6 Xposition Yposition Zposition Zrotation Xrotation Yrotation
                JOINT RightHandPinky1
                {
                  OFFSET -8.0767 -0.4885 -3.806
                  CHANNELS 6 Xposition Yposition Zposition Zrotation Xrotation Yrotation
                  JOINT RightHandPinky2
                  {
                    OFFSET -3.6 0 0.0001
                    CHANNELS 6 Xposition Yposition Zposition Zrotation Xrotation Yrotation
                    JOINT RightHandPinky3
                    {
                      OFFSET -2.1142 0 0
                      CHANNELS 6 Xposition Yposition Zposition Zrotation Xrotation Yrotation
                      End Site
                      {
                        OFFSET -1.9757 0 0
                      }
                    }
                  }
                }
                JOINT RightHandRing1
                {
                  OFFSET -9.1036 -0.0439 -1.8651
                  CHANNELS 6 Xposition Yposition Zposition Zrotation Xrotation Yrotation
                  JOINT RightHandRing2
                  {
                    OFFSET -3.154 0 0
                    CHANNELS 6 Xposition Yposition Zposition Zrotation Xrotation Yrotation
                    JOINT RightHandRing3
                    {
                      OFFSET -2.9377 0 0
                      CHANNELS 6 Xposition Yposition Zposition Zrotation Xrotation Yrotation
                      End Site
                      {
                        OFFSET -2.6475 0 0
                      }
                    }
                  }
                }
                JOINT RightHandMiddle1
                {
                  OFFSET -9.5325 0 0
                  CHANNELS 6 Xposition Yposition Zposition Zrotation Xrotation Yrotation
                  JOINT RightHandMiddle2
                  {
                    OFFSET -3.6982 0 0
                    CHANNELS 6 Xposition Yposition Zposition Zrotation Xrotation Yrotation
                    JOINT RightHandMiddle3
                    {
                      OFFSET -2.9509 0 0
                      CHANNELS 6 Xposition Yposition Zposition Zrotation Xrotation Yrotation
                      End Site
                      {
                        OFFSET -2.8339 0 0.0001
                      }
                    }
                  }
                }
                JOINT RightHandIndex1
                {
                  OFFSET -9.1083 -0.5168 2.2601
                  CHANNELS 6 Xposition Yposition Zposition Zrotation Xrotation Yrotation
                  JOINT RightHandIndex2
                  {
                    OFFSET -3.6764 0 0
                    CHANNELS 6 Xposition Yposition Zposition Zrotation Xrotation Yrotation
                    JOINT RightHandIndex3
                    {
                      OFFSET -2.8831 0 0
                      CHANNELS 6 Xposition Yposition Zposition Zrotation Xrotation Yrotation
                      End Site
                      {
                        OFFSET -2.3927 0 0
                      }
                    }
                  }
                }
                JOINT RightHandThumb1
                {
                  OFFSET -2.4648 -1.5727 2.6826
                  CHANNELS 6 Xposition Yposition Zposition Zrotation Xrotation Yrotation
                  JOINT RightHandThumb2
                  {
                    OFFSET -3.2298 -1.8647 1.8647
                    CHANNELS 6 Xposition Yposition Zposition Zrotation Xrotation Yrotation
                    JOINT RightHandThumb3
                    {
                      OFFSET -2.6526 -1.5314 1.5314
                      CHANNELS 6 Xposition Yposition Zposition Zrotation Xrotation Yrotation
                      End Site
                      {
                        OFFSET -1.9546 -1.1285 1.1285
                      }
                    }
                  }
                }
              }
            }
          }
        }
      }
    }
  }
  JOINT LeftUpLeg
  {
    OFFSET 8.2078 -6.7517 -1.5996
    CHANNELS 6 Xposition Yposition Zposition Zrotation Xrotation Yrotation
    JOINT LeftLeg
    {
      OFFSET 0 -44.3705 0.2846
      CHANNELS 6 Xposition Yposition Zposition Zrotation Xrotation Yrotation
      JOINT LeftFoot
      {
        OFFSET 0 -44.4279 -2.9822
        CHANNELS 6 Xposition Yposition Zposition Zrotation Xrotation Yrotation
        JOINT LeftToeBase
        {
          OFFSET 0 -8.7287 10.7106
          CHANNELS 6 Xposition Yposition Zposition Zrotation Xrotation Yrotation
          End Site
          {
            OFFSET 0 -0.0007 9.2781
          }
        }
      }
    }
  }
  JOINT RightUpLeg
  {
    OFFSET -8.2078 -6.7517 -1.5996
    CHANNELS 6 Xposition Yposition Zposition Zrotation Xrotation Yrotation
    JOINT RightLeg
    {
      OFFSET 0 -44.3705 0.2862
      CHANNELS 6 Xposition Yposition Zposition Zrotation Xrotation Yrotation
      JOINT RightFoot
      {
        OFFSET 0 -44.4277 -2.9838
        CHANNELS 6 Xposition Yposition Zposition Zrotation Xrotation Yrotation
        JOINT RightToeBase
        {
          OFFSET 0 -8.7287 10.7106
          CHANNELS 6 Xposition Yposition Zposition Zrotation Xrotation Yrotation
          End Site
          {
            OFFSET 0 -0.0007 9.2781
          }
        }
      }
    }
  }
}
MOTION
Frames:	4
Frame Time:	0.0333333
63.2866 91.0355 1.25865 0.728335 29.8452 -9.13257 0 10.1816 0.1315 5.38618 9.81153 -3.82078 0 10.0835 -1.0008 1.82177 8.14477 -1.66692 7.10543e-015 9.1 -1.3734 1.82687 8.14652 -1.56598 0 16.6717 -2.5162 -3.6031 -8.44758 -2.25629 -7.10543e-015 9.6179 1.685 11.5444 -27.4102 28.329 -1.42109e-014 17.8152 2.585 1.98785e-015 -6.36111e-015 -0 3.0676 6.4095 9.2836 1.98785e-015 -6.36111e-015 -0 -3.0676 6.4095 9.2835 1.98785e-015 -6.36111e-015 -0 4.5704 10.946 -2.628 -18.5687 0.635104 1.04845 10.5924 -0.5246 -2.2321 -58.3276 -59.0336 -12.1766 27.8415 -0.0001 0 -0.000213957 4.00938e-006 -16.1562 28.3288 -2.84217e-014 0 -11.1103 -43.3411 -31.9381 2.4661 -1.575 2.6824 9.94871 -14.362 -13.0422 3.2298 -1.8647 1.8647 -3.06675 3.0903 9.37336 2.6526 -1.5315 1.5315 10.1427 -11.1934 -9.24417 9.1093 -0.5171 2.2601 -9.84915 -0.0775622 -16.6662 3.6764 -1.42109e-014 -1.42109e-014 -10.4284 -0.0965574 1.05811 2.8831 0 0 -12.0984 -0.129855 1.22523 9.5334 1.42109e-014 1.42109e-014 -17.7336 -0.917923 -0.615419 3.6982 0 0 -12.5303 -0.139237 1.2683 2.9509 1.42109e-014 -1.42109e-014 -12.5571 -0.139834 1.27096 9.1045 -0.0439 -1.8651 -18.53 -0.949242 11.2412 3.154 0 1.42109e-014 -24.1458 -0.511647 2.3918 2.9377 0 0 -10.4421 -0.0968 1.0595 8.0778 -0.4887 -3.8061 -22.8143 -0.872371 27.0039 3.6 -1.42109e-014 1.42109e-014 -13.9898 -0.173391 1.41327 2.1142 -1.42109e-014 -1.42109e-014 -10.4419 -0.096813 1.05946 -4.57 10.9462 -2.628 14.7315 1.74485 4.67643 -10.5928 -0.5248 -2.2321 49.967 -47.9028 46.841 -27.8415 7.10543e-015 -1.77636e-015 4.15105e-006 5.90183e-006 25.6369 -28.3288 0 0.0001 8.40696 -26.7165 15.6699 -8.0767 -0.4885 -3.806 17.4613 -0.549548 -24.4908 -3.6 -1.77636e-015 0.0001 16.6136 -0.193282 -1.32542 -2.1142 -8.88178e-016 0 16.2135 -0.184588 -1.29586 -9.1036 -0.0439 -1.8651 14.8233 -0.673863 -8.56479 -3.154 -3.55271e-015 0 19.4025 -0.263599 -1.54182 -2.9377 1.77636e-015 0 13.7726 -0.133433 -1.10486 -9.5325 7.10543e-015 1.42109e-014 11.2192 -0.464886 2.33138 -3.6982 3.55271e-015 1.42109e-014 13.2371 -0.123321 -1.06268 -2.9509 0 -1.42109e-014 10.5902 -0.07904 -0.854934 -9.1083 -0.5168 2.2601 6.92257 0.336311 18.756 -3.6764 -3.55271e-015 1.42109e-014 5.65758 -0.0225811 -0.457506 -2.8831 0 -1.42109e-014 11.3829 -0.091274 -0.91594 -2.4648 -1.5727 2.6826 -4.42297 -21.9662 5.71615 -3.2298 -1.8647 1.8647 -0.93103 4.82704 -2.29379 -2.6526 -1.5314 1.5314 -11.9125 -8.72176 5.07132 8.2078 -6.7517 -1.5996 5.01283 -64.8462 15.2301 -7.10543e-015 -44.3705 0.2846 -5.23883 68.4151 9.68058 7.10543e-015 -44.4279 -2.9822 -3.91898 -5.8728 -6.53735 7.10543e-015 -8.7287 10.7106 2.30461 -19.0522 0.702571 -8.2078 -6.7517 -1.5996 -27.4021 -86.1561 -29.2135 0 -44.3705 0.2862 3.43138 71.3752 6.16396 0 -44.4277 -2.9838 5.97854 9.03669 -8.28458 7.10543e-015 -8.7287 10.7106 2.47867e-007 -8.61502 -2.93547e-006 
71.0195 90.7606 0.976085 1.75173 29.4182 -8.22072 -1.42109e-014 10.1816 0.1315 4.01896 10.306 -4.02619 0 10.0835 -1.0008 1.56501 8.05465 -1.81153 -1.42109e-014 9.1 -1.3734 1.5722 8.05966 -1.70901 0 16.6717 -2.5162 -3.54685 -8.45147 -2.20926 0 9.6179 1.685 11.4546 -27.8926 26.8896 -1.42109e-014 17.8152 2.585 -3.97569e-016 -6.36111e-015 3.97569e-016 3.0676 6.4095 9.2836 -3.97569e-016 -6.36111e-015 3.97569e-016 -3.0676 6.4095 9.2835 -3.97569e-016 -6.36111e-015 3.97569e-016 4.5704 10.946 -2.628 -18.4442 0.731295 0.702006 10.5924 -0.5246 -2.2321 -57.9201 -58.5941 -12.8706 27.8415 -0.0001 -1.42109e-014 -0.000212389 8.79172e-006 -14.8488 28.3288 0 7.10543e-015 -12.392 -42.7459 -32.6349 2.4661 -1.575 2.6824 9.94871 -14.362 -13.0422 3.2298 -1.8647 1.8647 -3.06675 3.0903 9.37336 2.6526 -1.5315 1.5315 10.1427 -11.1934 -9.24417 9.1093 -0.5171 2.2601 -9.84915 -0.0775622 -16.6662 3.6764 1.42109e-014 1.42109e-014 -10.4284 -0.0965574 1.05811 2.8831 -1.42109e-014 0 -12.0984 -0.129855 1.22523 9.5334 -1.42109e-014 -1.42109e-014 -17.7336 -0.917923 -0.615419 3.6982 1.42109e-014 0 -12.5303 -0.139237 1.2683 2.9509 0 0 -12.5571 -0.139834 1.27096 9.1045 -0.0439 -1.8651 -18.53 -0.949242 11.2412 3.154 -1.42109e-014 1.42109e-014 -24.1458 -0.511647 2.3918 2.9377 1.42109e-014 -2.84217e-014 -10.4421 -0.0968 1.0595 8.0778 -0.4887 -3.8061 -22.8143 -0.872371 27.0039 3.6 0 0 -13.9898 -0.173391 1.41327 2.1142 -1.42109e-014 0 -10.4419 -0.096813 1.05946 -4.57 10.9462 -2.628 15.1627 1.7077 4.31074 -10.5928 -0.5248 -2.2321 51.2728 -48.815 46.9831 -27.8415 0 1.77636e-015 2.10297e-006 4.48651e-007 26.0996 -28.3288 0 0.0001 8.66865 -27.4177 15.7438 -8.0767 -0.4885 -3.806 17.4613 -0.549548 -24.4908 -3.6 -1.77636e-015 0.0001 16.6136 -0.193282 -1.32542 -2.1142 1.77636e-015 0 16.2135 -0.184588 -1.29586 -9.1036 -0.0439 -1.8651 14.8233 -0.673863 -8.56479 -3.154 0 0 19.4025 -0.263599 -1.54182 -2.9377 -1.77636e-015 -1.42109e-014 13.7726 -0.133433 -1.10486 -9.5325 7.10543e-015 0 11.2192 -0.464886 2.33138 -3.6982 1.77636e-015 0 13.2371 -0.123321 -1.06268 -2.9509 -1.77636e-015 0 10.5902 -0.07904 -0.854934 -9.1083 -0.5168 2.2601 6.92257 0.336311 18.756 -3.6764 0 -1.42109e-014 5.65758 -0.0225811 -0.457506 -2.8831 3.55271e-015 0 11.3829 -0.091274 -0.91594 -2.4648 -1.5727 2.6826 -4.42297 -21.9662 5.71615 -3.2298 -1.8647 1.8647 -0.93103 4.82704 -2.29379 -2.6526 -1.5314 1.5314 -11.9125 -8.72176 5.07132 8.2078 -6.7517 -1.5996 16.2225 -68.618 19.663 -1.42109e-014 -44.3705 0.2846 -20.0303 76.825 20.7294 0 -44.4279 -2.9822 -7.73882 -5.23661 -8.94478 0 -8.7287 10.7106 -2.79027e-006 -13.0978 -3.18417e-006 -8.2078 -6.7517 -1.5996 1.51337 -85.349 -2.61973 7.10543e-015 -44.3705 0.2862 0.38627 69.5543 7.23657 0 -44.4277 -2.9838 12.0577 13.5732 -13.0389 1.42109e-014 -8.7287 10.7106 1.58089e-006 -10.8657 -1.22806e-006 
78.6473 89.3232 0.793962 3.11202 28.7003 -7.60265 -1.42109e-014 10.1816 0.1315 2.35088 11.1509 -3.92388 -1.42109e-014 10.0835 -1.0008 1.24373 8.01404 -1.81387 0 9.1 -1.3734 1.24736 8.02394 -1.70852 1.42109e-014 16.6717 -2.5162 -3.49054 -8.53768 -2.05289 -1.42109e-014 9.6179 1.685 10.4118 -28.8672 24.6983 0 17.8152 2.585 2.28602e-015 3.18055e-015 3.97569e-016 3.0676 6.4095 9.2836 2.28602e-015 3.18055e-015 3.97569e-016 -3.0676 6.4095 9.2835 2.28602e-015 3.18055e-015 3.97569e-016 4.5704 10.946 -2.628 -18.1702 0.779698 0.508144 10.5924 -0.5246 -2.2321 -56.0206 -58.3854 -12.5013 27.8415 -0.0001 -7.10543e-015 -0.00021091 2.91584e-006 -13.897 28.3288 0 7.10543e-015 -13.5002 -43.4531 -33.4171 2.4661 -1.575 2.6824 9.94871 -14.362 -13.0422 3.2298 -1.8647 1.8647 -3.06675 3.0903 9.37336 2.6526 -1.5315 1.5315 10.1427 -11.1934 -9.24417 9.1093 -0.5171 2.2601 -9.84915 -0.0775622 -16.6662 3.6764 0 -1.42109e-014 -10.4284 -0.0965574 1.05811 2.8831 0 -1.42109e-014 -12.0984 -0.129855 1.22523 9.5334 -1.42109e-014 0 -17.7336 -0.917923 -0.615419 3.6982 -2.84217e-014 -2.84217e-014 -12.5303 -0.139237 1.2683 2.9509 0 0 -12.5571 -0.139834 1.27096 9.1045 -0.0439 -1.8651 -18.53 -0.949242 11.2412 3.154 0 1.42109e-014 -24.1458 -0.511647 2.3918 2.9377 1.42109e-014 0 -10.4421 -0.0968 1.0595 8.0778 -0.4887 -3.8061 -22.8143 -0.872371 27.0039 3.6 1.42109e-014 0 -13.9898 -0.173391 1.41327 2.1142 0 -1.42109e-014 -10.4419 -0.096813 1.05946 -4.57 10.9462 -2.628 15.3552 1.66035 3.98214 -10.5928 -0.5248 -2.2321 52.0181 -49.5345 46.6938 -27.8415 -1.42109e-014 1.77636e-015 3.67923e-006 -3.60492e-006 26.2975 -28.3288 0 0.0001 8.28074 -28.3213 15.9956 -8.0767 -0.4885 -3.806 17.4613 -0.549548 -24.4908 -3.6 0 0.0001 16.6136 -0.193282 -1.32542 -2.1142 0 0 16.2135 -0.184588 -1.29586 -9.1036 -0.0439 -1.8651 14.8233 -0.673863 -8.56479 -3.154 1.77636e-015 0 19.4025 -0.263599 -1.54182 -2.9377 0 0 13.7726 -0.133433 -1.10486 -9.5325 1.77636e-015 0 11.2192 -0.464886 2.33138 -3.6982 0 1.42109e-014 13.2371 -0.123321 -1.06268 -2.9509 1.77636e-015 0 10.5902 -0.07904 -0.854934 -9.1083 -0.5168 2.2601 6.92257 0.336311 18.756 -3.6764 0 0 5.65758 -0.0225811 -0.457506 -2.8831 -3.55271e-015 -1.42109e-014 11.3829 -0.091274 -0.91594 -2.4648 -1.5727 2.6826 -4.42297 -21.9662 5.71615 -3.2298 -1.8647 1.8647 -0.93103 4.82704 -2.29379 -2.6526 -1.5314 1.5314 -11.9125 -8.72176 5.07132 8.2078 -6.7517 -1.5996 47.8039 -59.2227 37.2026 0 -44.3705 0.2846 -23.8088 77.1334 24.5918 1.42109e-014 -44.4279 -2.9822 -16.6375 -17.0557 -10.0904 1.42109e-014 -8.7287 10.7106 -3.76779e-006 -5.08756 4.45224e-008 -8.2078 -6.7517 -1.5996 4.78198 -81.7299 -0.147954 0 -44.3705 0.2862 -7.00603 65.1988 8.27703 1.42109e-014 -44.4277 -2.9838 8.41382 10.6913 -15.9799 0 -8.7287 10.7106 -3.24734e-008 -12.351 3.85858e-006 
85.8918 86.7352 0.930457 4.66689 28.0707 -7.00025 0 10.1816 0.1315 0.869417 11.7753 -3.50283 -1.42109e-014 10.0835 -1.0008 0.986752 8.03048 -1.63651 -1.42109e-014 9.1 -1.3734 0.980998 8.04473 -1.52691 1.42109e-014 16.6717 -2.5162 -3.46498 -8.7193 -1.78913 1.42109e-014 9.6179 1.685 8.53083 -30.0756 22.2783 0 17.8152 2.585 4.41391e-032 3.18055e-015 -7.95139e-016 3.0676 6.4095 9.2836 4.41391e-032 3.18055e-015 -7.95139e-016 -3.0676 6.4095 9.2835 4.41391e-032 3.18055e-015 -7.95139e-016 4.5704 10.946 -2.628 -17.967 0.719679 0.698006 10.5924 -0.5246 -2.2321 -53.1854 -58.8422 -11.3752 27.8415 -0.0001 7.10543e-015 -0.000210874 1.81829e-006 -13.6328 28.3288 0 0 -14.384 -45.0216 -34.0805 2.4661 -1.575 2.6824 9.94871 -14.362 -13.0422 3.2298 -1.8647 1.8647 -3.06675 3.0903 9.37336 2.6526 -1.5315 1.5315 10.1427 -11.1934 -9.24417 9.1093 -0.5171 2.2601 -9.84915 -0.0775622 -16.6662 3.6764 0 1.42109e-014 -10.4284 -0.0965574 1.05811 2.8831 1.42109e-014 -1.42109e-014 -12.0984 -0.129855 1.22523 9.5334 1.42109e-014 0 -17.7336 -0.917923 -0.615419 3.6982 0 0 -12.5303 -0.139237 1.2683 2.9509 -1.42109e-014 -2.84217e-014 -12.5571 -0.139834 1.27096 9.1045 -0.0439 -1.8651 -18.53 -0.949242 11.2412 3.154 1.42109e-014 -1.42109e-014 -24.1458 -0.511647 2.3918 2.9377 0 1.42109e-014 -10.4421 -0.0968 1.0595 8.0778 -0.4887 -3.8061 -22.8143 -0.872371 27.0039 3.6 -1.42109e-014 1.42109e-014 -13.9898 -0.173391 1.41327 2.1142 0 0 -10.4419 -0.096813 1.05946 -4.57 10.9462 -2.628 15.1147 1.63586 3.93745 -10.5928 -0.5248 -2.2321 51.6928 -49.5929 46.0665 -27.8415 7.10543e-015 1.77636e-015 -8.46038e-006 4.08404e-006 25.8727 -28.3288 0 0.0001 7.495 -29.2666 16.3242 -8.0767 -0.4885 -3.806 17.4613 -0.549548 -24.4908 -3.6 0 0.0001 16.6136 -0.193282 -1.32542 -2.1142 0 7.10543e-015 16.2135 -0.184588 -1.29586 -9.1036 -0.0439 -1.8651 14.8233 -0.673863 -8.56479 -3.154 1.77636e-015 1.42109e-014 19.4025 -0.263599 -1.54182 -2.9377 0 0 13.7726 -0.133433 -1.10486 -9.5325 -7.10543e-015 1.42109e-014 11.2192 -0.464886 2.33138 -3.6982 -1.77636e-015 2.84217e-014 13.2371 -0.123321 -1.06268 -2.9509 1.77636e-015 0 10.5902 -0.07904 -0.854934 -9.1083 -0.5168 2.2601 6.92257 0.336311 18.756 -3.6764 -5.32907e-015 1.42109e-014 5.65758 -0.0225811 -0.457506 -2.8831 -1.77636e-015 -1.42109e-014 11.3829 -0.091274 -0.91594 -2.4648 -1.5727 2.6826 -4.42297 -21.9662 5.71615 -3.2298 -1.8647 1.8647 -0.93103 4.82704 -2.29379 -2.6526 -1.5314 1.5314 -11.9125 -8.72176 5.07132 8.2078 -6.7517 -1.5996 54.3269 -53.1157 42.869 1.42109e-014 -44.3705 0.2846 -13.4342 73.7254 16.4188 0 -44.4279 -2.9822 -11.3904 -19.6401 -6.51627 -1.42109e-014 -8.7287 10.7106 -2.21488e-006 -1.20614 2.08706e-006 -8.2078 -6.7517 -1.5996 -3.88972 -78.5778 -5.95357 2.84217e-014 -44.3705 0.2862 -15.2972 63.3793 14.8509 1.42109e-014 -44.4277 -2.9838 -0.583423 -4.45602 -16.7429 0 -8.7287 10.7106 -1.74752e-007 -9.79414 9.48655e-006 
